<svg width="16" height="16" viewBox="0 0 16 16" fill="none" xmlns="http://www.w3.org/2000/svg"><path d="M6 5.35323V10.6468C6 10.8022 6.16959 10.8982 6.3029 10.8183L10.7142 8.17149C10.8436 8.09381 10.8436 7.90618 10.7142 7.8285L6.3029 5.18173C6.16959 5.10175 6 5.19777 6 5.35323Z" fill="#6B6B6B"></path><path fill-rule="evenodd" clip-rule="evenodd" d="M2.5 1C1.67157 1 1 1.67157 1 2.5V13.5C1 14.3284 1.67157 15 2.5 15H13.5C14.3284 15 15 14.3284 15 13.5V2.5C15 1.67157 14.3284 1 13.5 1H2.5ZM2 2.5C2 2.22386 2.22386 2 2.5 2H13.5C13.7761 2 14 2.22386 14 2.5V13.5C14 13.7761 13.7761 14 13.5 14H2.5C2.22386 14 2 13.7761 2 13.5V2.5Z" fill="#6B6B6B"></path></svg>
