<svg width="10" height="10" viewBox="0 0 10 10" fill="none" xmlns="http://www.w3.org/2000/svg">
<path fill-rule="evenodd" clip-rule="evenodd" d="M1.5 0C0.671573 0 0 0.671573 0 1.5V8.5C0 9.32843 0.671573 10 1.5 10H8.5C9.32843 10 10 9.32843 10 8.5V2.5C10 1.67157 9.32843 1 8.5 1H5.20711L4.64645 0.439339C4.36514 0.158035 3.98361 0 3.58579 0H1.5ZM1 1.5C1 1.22386 1.22386 1 1.5 1H3.58579C3.71839 1 3.84557 1.05268 3.93934 1.14645L4.64645 1.85355C4.74021 1.94732 4.86739 2 5 2H8.5C8.77615 2 9 2.22386 9 2.5V4H1L1 1.5ZM1 5L1 8.5C1 8.77614 1.22386 9 1.5 9H8.5C8.77615 9 9 8.77614 9 8.5V5H1Z" fill="#6B6B6B"/>
</svg>
