<?xml version="1.0" encoding="UTF-8"?>
<svg id="Layer_1" data-name="Layer 1" xmlns="http://www.w3.org/2000/svg" viewBox="0 0 160 160">
  <defs>
    <style>
      .cls-1 {
        stroke: #fff;
        stroke-miterlimit: 10;
      }

      .cls-2 {
        fill: #fff;
      }

       .cls-1 {
        fill: #fff;
      }

      .cls-3 {
        fill: #fff;
        font-family: Inter-Bold, Inter;
        font-size: 36px;
        font-variation-settings: 'wght' 1000, 'slnt' 0;
      }
    </style>
  </defs>
  <path class="cls-2" d="M106.66,16.63l-46.51,58.44,46.03,36.73c13.23-11.68,21.58-28.77,21.58-47.8s-8.14-35.7-21.09-47.37c0,0-.01,0-.01,0Zm1.34,63.25c-.91,0-1.84-.25-2.67-.76-2.38-1.48-3.12-4.61-1.64-6.99,.12-.22,1.86-2.81,2.32-6.54,.47-4.24-1.07-7.62-1.89-9.08-.15-.25-.3-.51-.47-.76h0c-1.53-2.35-.74-5.51,1.64-6.99,.83-.52,1.76-.76,2.67-.76,1.45,0,2.87,.62,3.86,1.77l.02-.02c.19,.26,1.54,2.15,2.7,5.17,.56,1.44,.98,2.91,1.26,4.39,1.22,6.25,.02,12.51-3.48,18.17-.96,1.55-2.62,2.41-4.32,2.41h0Zm-58.16-.05c-2.19-1.75-2.55-4.94-.81-7.13L98.59,10.45C88.63,4,76.75,.25,64,.25,28.79,.25,.25,28.79,.25,64s28.54,63.75,63.75,63.75c12.4,0,23.96-3.54,33.75-9.66l-47.92-38.24h0Z"/>
  <text class="cls-3" transform="translate(15.04 160)"><tspan x="0" y="0">STAGE</tspan></text>
</svg>
