<svg width="16" height="16" viewBox="0 0 16 16" fill="none" xmlns="http://www.w3.org/2000/svg"><path d="M11 7H5V6H11V7Z" fill="#6B6B6B"></path><path d="M5 9H11V8H5V9Z" fill="#6B6B6B"></path><path d="M7 4H5V3H7V4Z" fill="#6B6B6B"></path><path d="M5 10V11H9V10H5Z" fill="#6B6B6B"></path><path fill-rule="evenodd" clip-rule="evenodd" d="M3.5 0C2.67157 0 2 0.671573 2 1.5V14.5C2 15.3284 2.67157 16 3.5 16L12.5 16C13.3284 16 14 15.3284 14 14.5V3C14 2.86739 13.9473 2.74021 13.8536 2.64645L11.3536 0.146447C11.2598 0.0526784 11.1326 0 11 0H3.5ZM10 1H3.5C3.22386 1 3 1.22386 3 1.5V14.5C3 14.7761 3.22386 15 3.5 15L12.5 15C12.7761 15 13 14.7761 13 14.5V4H11C10.4477 4 10 3.55228 10 3V1Z" fill="#6B6B6B"></path></svg>