<svg width="16" height="16" viewBox="0 0 16 16" fill="none" xmlns="http://www.w3.org/2000/svg">
  <path
    d="M5.51328 1L3 3.51328L5.51328 6.02656L6.13607 5.40377L4.68605 3.95376H11.3672L10.3574 4.9635L10.9802 5.58628L13.0531 3.51338L10.9802 1.44048L10.3574 2.06327L11.3672 3.073H4.68585L6.13607 1.62279L5.51328 1Z"
    fill="#0053b8"></path>
  <path fill-rule="evenodd" clip-rule="evenodd"
    d="M7.34761 12.3349C7.7281 12.5956 8.16848 12.7259 8.66875 12.7259C9.04923 12.7259 9.4121 12.6343 9.75736 12.4511C10.1026 12.2609 10.3739 12.0002 10.5712 11.669V12.5146C10.5712 12.888 10.4901 13.1945 10.3281 13.4341C10.166 13.6736 9.9476 13.8498 9.67281 13.9625C9.40506 14.0823 9.11265 14.1422 8.79557 14.1422C8.41509 14.1422 8.05574 14.0647 7.71753 13.9097C7.38637 13.7547 7.11509 13.5292 6.90371 13.2333L6.24843 13.8463C6.52323 14.2127 6.86144 14.5015 7.26306 14.7129C7.67173 14.9243 8.18257 15.03 8.79557 15.03C9.35221 15.03 9.85248 14.9314 10.2964 14.7341C10.7403 14.5368 11.0891 14.2514 11.3427 13.878C11.6034 13.5045 11.7338 13.0501 11.7338 12.5146V7.14548H10.7086V8.19182C10.4901 7.85361 10.2118 7.57881 9.87362 7.36743C9.54245 7.15605 9.15492 7.05036 8.71102 7.05036C8.20371 7.05036 7.75628 7.18071 7.36875 7.44141C6.98826 7.69507 6.68881 8.04033 6.47038 8.47718C6.25195 8.91404 6.14274 9.39317 6.14274 9.91457C6.14274 10.4148 6.24843 10.8799 6.45981 11.3097C6.67824 11.7325 6.97417 12.0742 7.34761 12.3349ZM9.71508 11.6373C9.5037 11.736 9.28175 11.7853 9.04923 11.7853C8.72511 11.7853 8.4327 11.7043 8.172 11.5422C7.9113 11.3731 7.70344 11.1512 7.54843 10.8764C7.40046 10.5945 7.32647 10.2845 7.32647 9.94628C7.32647 9.62921 7.39341 9.32623 7.52729 9.03734C7.66116 8.74141 7.84788 8.50184 8.08745 8.31865C8.33406 8.13545 8.62647 8.04385 8.96468 8.04385C9.29584 8.04385 9.60939 8.15659 9.90533 8.38206C10.2083 8.60049 10.4303 8.88585 10.5712 9.23816V10.6861C10.5148 10.8764 10.4091 11.056 10.2541 11.2251C10.1061 11.3942 9.92646 11.5316 9.71508 11.6373Z"
    fill="#0053b8"></path>
</svg>
