<svg width="12" height="10" viewBox="0 0 12 10" fill="none" xmlns="http://www.w3.org/2000/svg">
<path fill-rule="evenodd" clip-rule="evenodd" d="M3.65394 6.29225C3.48978 6.32811 3.28954 6.34605 3.05322 6.34605C2.56614 6.34605 2.18551 6.20902 1.9113 5.93495C1.6371 5.66088 1.5 5.27278 1.5 4.77063C1.5 4.25377 1.62673 3.85417 1.88019 3.57183C2.13365 3.28949 2.48406 3.14832 2.93145 3.14832C3.35899 3.14832 3.69182 3.27247 3.92995 3.52079C4.16807 3.7691 4.28713 4.11214 4.28713 4.54991V4.95825H2.33614C2.34516 5.19737 2.41461 5.38406 2.5445 5.51833C2.67438 5.65261 2.85658 5.71974 3.0911 5.71974C3.2733 5.71974 3.44558 5.70043 3.60794 5.6618C3.7703 5.62318 3.93987 5.56156 4.11666 5.47695V6.12808C3.97234 6.20166 3.8181 6.25638 3.65394 6.29225ZM3.35358 3.91671C3.25075 3.80359 3.11185 3.74703 2.93686 3.74703C2.76188 3.74703 2.62477 3.80359 2.52556 3.91671C2.42634 4.02983 2.36951 4.19031 2.35508 4.39816H3.51323C3.50962 4.19031 3.4564 4.02983 3.35358 3.91671Z" fill="#6B6B6B"/>
<path d="M4.96633 6.24258C4.88334 6.16073 4.84185 6.04531 4.84185 5.89632C4.84185 5.74182 4.88244 5.62502 4.96362 5.54592C5.0448 5.46683 5.16296 5.42729 5.3181 5.42729C5.46783 5.42729 5.58373 5.46775 5.66581 5.54868C5.7479 5.62962 5.78894 5.74549 5.78894 5.89632C5.78894 6.04163 5.74744 6.15613 5.66446 6.23982C5.58148 6.32351 5.46603 6.36536 5.3181 6.36536C5.16657 6.36536 5.04931 6.32444 4.96633 6.24258Z" fill="#6B6B6B"/>
<path fill-rule="evenodd" clip-rule="evenodd" d="M6.79284 6.05911L6.79094 6.05827C6.70695 6.02141 6.63362 5.96145 6.57096 5.87839C6.50782 5.7947 6.47625 5.70595 6.47625 5.61214C6.47625 5.49442 6.50962 5.39648 6.57637 5.3183C6.64312 5.24013 6.73963 5.16334 6.8659 5.08792C6.70716 5.01803 6.58133 4.90583 6.48842 4.75132C6.39552 4.59681 6.34907 4.41472 6.34907 4.20503C6.34907 3.86842 6.4564 3.60816 6.67108 3.42422C6.88575 3.24028 7.19242 3.14832 7.5911 3.14832C7.67589 3.14832 7.77646 3.15613 7.89281 3.17177C8.00917 3.1874 8.08358 3.1989 8.11606 3.20626H9.17138V3.63391L8.69783 3.75806C8.78443 3.89602 8.82772 4.05052 8.82772 4.22158C8.82772 4.55267 8.71452 4.81064 8.48812 4.9955C8.26172 5.18035 7.94739 5.27278 7.5451 5.27278L7.39627 5.2645L7.2745 5.25071C7.18972 5.31692 7.14732 5.3905 7.14732 5.47143C7.14732 5.59283 7.29886 5.65353 7.60192 5.65353H8.11606C8.44799 5.65353 8.70099 5.72618 8.87507 5.87149C9.04916 6.0168 9.1362 6.23017 9.1362 6.51159C9.1362 6.87211 8.98873 7.15169 8.69378 7.35034C8.39883 7.54899 7.97535 7.64831 7.42333 7.64831C7.0012 7.64831 6.67874 7.57336 6.45595 7.42345C6.23316 7.27354 6.12177 7.0634 6.12177 6.79301C6.12177 6.60724 6.17859 6.45181 6.29224 6.32673C6.40589 6.20166 6.57276 6.11245 6.79284 6.05911ZM6.98903 6.43848C6.8871 6.51113 6.83614 6.60724 6.83614 6.72679C6.83614 6.84268 6.89071 6.93372 6.99985 6.99994C7.10899 7.06616 7.26188 7.09927 7.45851 7.09927C7.75436 7.09927 7.98617 7.05788 8.15394 6.97511C8.32171 6.89234 8.40559 6.77922 8.40559 6.63575C8.40559 6.51987 8.35598 6.43985 8.25677 6.39571C8.15755 6.35156 8.00421 6.32949 7.79675 6.32949H7.36921C7.21768 6.32949 7.09095 6.36582 6.98903 6.43848ZM7.5911 3.65874C7.28803 3.65874 7.1365 3.84451 7.1365 4.21607C7.1365 4.38345 7.17393 4.51588 7.2488 4.61337C7.32366 4.71085 7.43776 4.7596 7.5911 4.7596C7.74624 4.7596 7.85989 4.71085 7.93205 4.61337C8.00421 4.51588 8.04029 4.38345 8.04029 4.21607C8.04029 3.84451 7.89056 3.65874 7.5911 3.65874Z" fill="#6B6B6B"/>
<path d="M9.67739 6.24258C9.59441 6.16073 9.55292 6.04531 9.55292 5.89632C9.55292 5.74182 9.5935 5.62502 9.67468 5.54592C9.75586 5.46683 9.87402 5.42729 10.0292 5.42729C10.1789 5.42729 10.2948 5.46775 10.3769 5.54868C10.459 5.62962 10.5 5.74549 10.5 5.89632C10.5 6.04163 10.4585 6.15613 10.3755 6.23982C10.2925 6.32351 10.1771 6.36536 10.0292 6.36536C9.87763 6.36536 9.76037 6.32444 9.67739 6.24258Z" fill="#6B6B6B"/>
<path fill-rule="evenodd" clip-rule="evenodd" d="M0 1.5C0 0.947715 0.447715 0.5 1 0.5H11C11.5523 0.5 12 0.947715 12 1.5V8.5C12 9.05229 11.5523 9.5 11 9.5H1C0.447715 9.5 0 9.05229 0 8.5V1.5ZM1 1.5H11V8.5H1L1 1.5Z" fill="#6B6B6B"/>
</svg>
