<svg width="16" height="16" viewBox="0 0 16 16" fill="none" xmlns="http://www.w3.org/2000/svg">
  <path
    d="M1 2H5.25736C5.9204 2 6.55629 2.26339 7.02513 2.73223L9.29289 5L5 9.29289L3.73223 8.02513C3.26339 7.55628 3 6.9204 3 6.25736V4H2V6.25736C2 7.18562 2.36875 8.07585 3.02513 8.73223L5 10.7071L6.25004 9.45711L8.64648 11.8536L9.35359 11.1464L6.95714 8.75L8.75004 6.95711L11.1465 9.35355L11.8536 8.64645L9.45714 6.25L10.7071 5L7.73223 2.02513C7.07586 1.36875 6.18562 1 5.25736 1H1V2Z"
    fill="#d23f0e"></path>
  <path
    d="M10.6465 2.35355L13.2678 4.97487C13.7366 5.44372 14 6.0796 14 6.74264V12H15V6.74264C15 5.81438 14.6313 4.92414 13.9749 4.26777L11.3536 1.64645L10.6465 2.35355Z"
    fill="#d23f0e"></path>
  <path
    d="M4.26781 13.9749L1.64648 11.3536L2.35359 10.6464L4.97491 13.2678C5.44375 13.7366 6.07964 14 6.74268 14H15V15H6.74268C5.81442 15 4.92418 14.6313 4.26781 13.9749Z"
    fill="#d23f0e"></path>
</svg>
